G75*
%MOIN*%
%OFA0B0*%
%FSLAX25Y25*%
%IPPOS*%
%LPD*%
%AMOC8*
5,1,8,0,0,1.08239X$1,22.5*
%
%ADD10C,0.00100*%
%ADD11C,0.00004*%
%ADD12C,0.00000*%
D10*
X0061197Y0006800D02*
X0061197Y0054300D01*
X0061203Y0054422D01*
X0061213Y0054543D01*
X0061226Y0054664D01*
X0061243Y0054785D01*
X0061264Y0054905D01*
X0061289Y0055024D01*
X0061318Y0055142D01*
X0061350Y0055260D01*
X0061386Y0055376D01*
X0061425Y0055491D01*
X0061468Y0055605D01*
X0061515Y0055718D01*
X0061565Y0055829D01*
X0061619Y0055938D01*
X0061676Y0056046D01*
X0061737Y0056151D01*
X0061800Y0056255D01*
X0061867Y0056357D01*
X0061937Y0056456D01*
X0062011Y0056554D01*
X0062087Y0056649D01*
X0062166Y0056741D01*
X0062248Y0056831D01*
X0062333Y0056919D01*
X0062420Y0057003D01*
X0062511Y0057085D01*
X0062603Y0057164D01*
X0062698Y0057240D01*
X0062796Y0057313D01*
X0062895Y0057383D01*
X0062997Y0057450D01*
X0063101Y0057514D01*
X0063207Y0057574D01*
X0063315Y0057631D01*
X0063424Y0057684D01*
X0063535Y0057734D01*
X0063648Y0057781D01*
X0063762Y0057824D01*
X0063877Y0057863D01*
X0063993Y0057899D01*
X0064111Y0057931D01*
X0064229Y0057959D01*
X0064349Y0057984D01*
X0064469Y0058005D01*
X0064589Y0058022D01*
X0064710Y0058035D01*
X0064832Y0058045D01*
X0064953Y0058050D01*
X0065075Y0058052D01*
X0065197Y0058050D01*
X0161197Y0058050D01*
X0161337Y0058048D01*
X0161477Y0058042D01*
X0161617Y0058032D01*
X0161757Y0058019D01*
X0161896Y0058001D01*
X0162035Y0057979D01*
X0162172Y0057954D01*
X0162310Y0057925D01*
X0162446Y0057892D01*
X0162581Y0057855D01*
X0162715Y0057814D01*
X0162848Y0057769D01*
X0162980Y0057721D01*
X0163110Y0057669D01*
X0163239Y0057614D01*
X0163366Y0057555D01*
X0163492Y0057492D01*
X0163616Y0057426D01*
X0163737Y0057357D01*
X0163857Y0057284D01*
X0163975Y0057207D01*
X0164090Y0057128D01*
X0164204Y0057045D01*
X0164314Y0056959D01*
X0164423Y0056870D01*
X0164529Y0056778D01*
X0164632Y0056683D01*
X0164733Y0056586D01*
X0164830Y0056485D01*
X0164925Y0056382D01*
X0165017Y0056276D01*
X0165106Y0056167D01*
X0165192Y0056057D01*
X0165275Y0055943D01*
X0165354Y0055828D01*
X0165431Y0055710D01*
X0165504Y0055590D01*
X0165573Y0055469D01*
X0165639Y0055345D01*
X0165702Y0055219D01*
X0165761Y0055092D01*
X0165816Y0054963D01*
X0165868Y0054833D01*
X0165916Y0054701D01*
X0165961Y0054568D01*
X0166002Y0054434D01*
X0166039Y0054299D01*
X0166072Y0054163D01*
X0166101Y0054025D01*
X0166126Y0053888D01*
X0166148Y0053749D01*
X0166166Y0053610D01*
X0166179Y0053470D01*
X0166189Y0053330D01*
X0166195Y0053190D01*
X0166197Y0053050D01*
X0166197Y0008050D01*
X0166195Y0007910D01*
X0166189Y0007770D01*
X0166179Y0007630D01*
X0166166Y0007490D01*
X0166148Y0007351D01*
X0166126Y0007212D01*
X0166101Y0007075D01*
X0166072Y0006937D01*
X0166039Y0006801D01*
X0166002Y0006666D01*
X0165961Y0006532D01*
X0165916Y0006399D01*
X0165868Y0006267D01*
X0165816Y0006137D01*
X0165761Y0006008D01*
X0165702Y0005881D01*
X0165639Y0005755D01*
X0165573Y0005631D01*
X0165504Y0005510D01*
X0165431Y0005390D01*
X0165354Y0005272D01*
X0165275Y0005157D01*
X0165192Y0005043D01*
X0165106Y0004933D01*
X0165017Y0004824D01*
X0164925Y0004718D01*
X0164830Y0004615D01*
X0164733Y0004514D01*
X0164632Y0004417D01*
X0164529Y0004322D01*
X0164423Y0004230D01*
X0164314Y0004141D01*
X0164204Y0004055D01*
X0164090Y0003972D01*
X0163975Y0003893D01*
X0163857Y0003816D01*
X0163737Y0003743D01*
X0163616Y0003674D01*
X0163492Y0003608D01*
X0163366Y0003545D01*
X0163239Y0003486D01*
X0163110Y0003431D01*
X0162980Y0003379D01*
X0162848Y0003331D01*
X0162715Y0003286D01*
X0162581Y0003245D01*
X0162446Y0003208D01*
X0162310Y0003175D01*
X0162172Y0003146D01*
X0162035Y0003121D01*
X0161896Y0003099D01*
X0161757Y0003081D01*
X0161617Y0003068D01*
X0161477Y0003058D01*
X0161337Y0003052D01*
X0161197Y0003050D01*
X0065197Y0003050D01*
X0065073Y0003048D01*
X0064948Y0003050D01*
X0064824Y0003056D01*
X0064700Y0003066D01*
X0064577Y0003080D01*
X0064454Y0003098D01*
X0064332Y0003119D01*
X0064210Y0003145D01*
X0064089Y0003175D01*
X0063970Y0003208D01*
X0063851Y0003245D01*
X0063734Y0003286D01*
X0063618Y0003331D01*
X0063503Y0003380D01*
X0063390Y0003432D01*
X0063279Y0003487D01*
X0063170Y0003547D01*
X0063063Y0003609D01*
X0062958Y0003675D01*
X0062855Y0003745D01*
X0062754Y0003817D01*
X0062655Y0003893D01*
X0062559Y0003972D01*
X0062466Y0004054D01*
X0062375Y0004139D01*
X0062287Y0004227D01*
X0062202Y0004318D01*
X0062120Y0004411D01*
X0062041Y0004507D01*
X0061965Y0004606D01*
X0061893Y0004706D01*
X0061823Y0004809D01*
X0061757Y0004915D01*
X0061694Y0005022D01*
X0061635Y0005131D01*
X0061579Y0005242D01*
X0061527Y0005355D01*
X0061479Y0005469D01*
X0061434Y0005585D01*
X0061393Y0005703D01*
X0061355Y0005821D01*
X0061322Y0005941D01*
X0061292Y0006062D01*
X0061267Y0006183D01*
X0061245Y0006306D01*
X0061227Y0006428D01*
X0061213Y0006552D01*
X0061203Y0006676D01*
X0061197Y0006800D01*
D11*
X0067654Y0006141D02*
X0074740Y0006141D01*
X0074812Y0006143D01*
X0074884Y0006149D01*
X0074956Y0006158D01*
X0075027Y0006171D01*
X0075097Y0006188D01*
X0075166Y0006208D01*
X0075234Y0006233D01*
X0075300Y0006260D01*
X0075366Y0006291D01*
X0075429Y0006326D01*
X0075491Y0006363D01*
X0075550Y0006404D01*
X0075607Y0006448D01*
X0075662Y0006495D01*
X0075714Y0006545D01*
X0075764Y0006597D01*
X0075811Y0006652D01*
X0075855Y0006709D01*
X0075896Y0006768D01*
X0075933Y0006830D01*
X0075968Y0006893D01*
X0075999Y0006959D01*
X0076026Y0007025D01*
X0076051Y0007093D01*
X0076071Y0007162D01*
X0076088Y0007232D01*
X0076101Y0007303D01*
X0076110Y0007375D01*
X0076116Y0007447D01*
X0076118Y0007519D01*
X0076116Y0007591D01*
X0076110Y0007663D01*
X0076101Y0007735D01*
X0076088Y0007806D01*
X0076071Y0007876D01*
X0076051Y0007945D01*
X0076026Y0008013D01*
X0075999Y0008079D01*
X0075968Y0008145D01*
X0075933Y0008208D01*
X0075896Y0008270D01*
X0075855Y0008329D01*
X0075811Y0008386D01*
X0075764Y0008441D01*
X0075714Y0008493D01*
X0075662Y0008543D01*
X0075607Y0008590D01*
X0075550Y0008634D01*
X0075491Y0008675D01*
X0075429Y0008712D01*
X0075366Y0008747D01*
X0075300Y0008778D01*
X0075234Y0008805D01*
X0075166Y0008830D01*
X0075097Y0008850D01*
X0075027Y0008867D01*
X0074956Y0008880D01*
X0074884Y0008889D01*
X0074812Y0008895D01*
X0074740Y0008897D01*
X0074740Y0008896D02*
X0067654Y0008896D01*
X0067654Y0008897D02*
X0067582Y0008895D01*
X0067510Y0008889D01*
X0067438Y0008880D01*
X0067367Y0008867D01*
X0067297Y0008850D01*
X0067228Y0008830D01*
X0067160Y0008805D01*
X0067094Y0008778D01*
X0067028Y0008747D01*
X0066965Y0008712D01*
X0066903Y0008675D01*
X0066844Y0008634D01*
X0066787Y0008590D01*
X0066732Y0008543D01*
X0066680Y0008493D01*
X0066630Y0008441D01*
X0066583Y0008386D01*
X0066539Y0008329D01*
X0066498Y0008270D01*
X0066461Y0008208D01*
X0066426Y0008145D01*
X0066395Y0008079D01*
X0066368Y0008013D01*
X0066343Y0007945D01*
X0066323Y0007876D01*
X0066306Y0007806D01*
X0066293Y0007735D01*
X0066284Y0007663D01*
X0066278Y0007591D01*
X0066276Y0007519D01*
X0066278Y0007447D01*
X0066284Y0007375D01*
X0066293Y0007303D01*
X0066306Y0007232D01*
X0066323Y0007162D01*
X0066343Y0007093D01*
X0066368Y0007025D01*
X0066395Y0006959D01*
X0066426Y0006893D01*
X0066461Y0006830D01*
X0066498Y0006768D01*
X0066539Y0006709D01*
X0066583Y0006652D01*
X0066630Y0006597D01*
X0066680Y0006545D01*
X0066732Y0006495D01*
X0066787Y0006448D01*
X0066844Y0006404D01*
X0066903Y0006363D01*
X0066965Y0006326D01*
X0067028Y0006291D01*
X0067094Y0006260D01*
X0067160Y0006233D01*
X0067228Y0006208D01*
X0067297Y0006188D01*
X0067367Y0006171D01*
X0067438Y0006158D01*
X0067510Y0006149D01*
X0067582Y0006143D01*
X0067654Y0006141D01*
X0067654Y0052204D02*
X0074740Y0052204D01*
X0074740Y0052203D02*
X0074812Y0052205D01*
X0074884Y0052211D01*
X0074956Y0052220D01*
X0075027Y0052233D01*
X0075097Y0052250D01*
X0075166Y0052270D01*
X0075234Y0052295D01*
X0075300Y0052322D01*
X0075366Y0052353D01*
X0075429Y0052388D01*
X0075491Y0052425D01*
X0075550Y0052466D01*
X0075607Y0052510D01*
X0075662Y0052557D01*
X0075714Y0052607D01*
X0075764Y0052659D01*
X0075811Y0052714D01*
X0075855Y0052771D01*
X0075896Y0052830D01*
X0075933Y0052892D01*
X0075968Y0052955D01*
X0075999Y0053021D01*
X0076026Y0053087D01*
X0076051Y0053155D01*
X0076071Y0053224D01*
X0076088Y0053294D01*
X0076101Y0053365D01*
X0076110Y0053437D01*
X0076116Y0053509D01*
X0076118Y0053581D01*
X0076116Y0053653D01*
X0076110Y0053725D01*
X0076101Y0053797D01*
X0076088Y0053868D01*
X0076071Y0053938D01*
X0076051Y0054007D01*
X0076026Y0054075D01*
X0075999Y0054141D01*
X0075968Y0054207D01*
X0075933Y0054270D01*
X0075896Y0054332D01*
X0075855Y0054391D01*
X0075811Y0054448D01*
X0075764Y0054503D01*
X0075714Y0054555D01*
X0075662Y0054605D01*
X0075607Y0054652D01*
X0075550Y0054696D01*
X0075491Y0054737D01*
X0075429Y0054774D01*
X0075366Y0054809D01*
X0075300Y0054840D01*
X0075234Y0054867D01*
X0075166Y0054892D01*
X0075097Y0054912D01*
X0075027Y0054929D01*
X0074956Y0054942D01*
X0074884Y0054951D01*
X0074812Y0054957D01*
X0074740Y0054959D01*
X0067654Y0054959D01*
X0067582Y0054957D01*
X0067510Y0054951D01*
X0067438Y0054942D01*
X0067367Y0054929D01*
X0067297Y0054912D01*
X0067228Y0054892D01*
X0067160Y0054867D01*
X0067094Y0054840D01*
X0067028Y0054809D01*
X0066965Y0054774D01*
X0066903Y0054737D01*
X0066844Y0054696D01*
X0066787Y0054652D01*
X0066732Y0054605D01*
X0066680Y0054555D01*
X0066630Y0054503D01*
X0066583Y0054448D01*
X0066539Y0054391D01*
X0066498Y0054332D01*
X0066461Y0054270D01*
X0066426Y0054207D01*
X0066395Y0054141D01*
X0066368Y0054075D01*
X0066343Y0054007D01*
X0066323Y0053938D01*
X0066306Y0053868D01*
X0066293Y0053797D01*
X0066284Y0053725D01*
X0066278Y0053653D01*
X0066276Y0053581D01*
X0066278Y0053509D01*
X0066284Y0053437D01*
X0066293Y0053365D01*
X0066306Y0053294D01*
X0066323Y0053224D01*
X0066343Y0053155D01*
X0066368Y0053087D01*
X0066395Y0053021D01*
X0066426Y0052955D01*
X0066461Y0052892D01*
X0066498Y0052830D01*
X0066539Y0052771D01*
X0066583Y0052714D01*
X0066630Y0052659D01*
X0066680Y0052607D01*
X0066732Y0052557D01*
X0066787Y0052510D01*
X0066844Y0052466D01*
X0066903Y0052425D01*
X0066965Y0052388D01*
X0067028Y0052353D01*
X0067094Y0052322D01*
X0067160Y0052295D01*
X0067228Y0052270D01*
X0067297Y0052250D01*
X0067367Y0052233D01*
X0067438Y0052220D01*
X0067510Y0052211D01*
X0067582Y0052205D01*
X0067654Y0052203D01*
D12*
X0069819Y0053581D02*
X0069821Y0053655D01*
X0069827Y0053729D01*
X0069837Y0053802D01*
X0069851Y0053875D01*
X0069868Y0053947D01*
X0069890Y0054017D01*
X0069915Y0054087D01*
X0069944Y0054155D01*
X0069977Y0054221D01*
X0070013Y0054286D01*
X0070053Y0054348D01*
X0070095Y0054409D01*
X0070141Y0054467D01*
X0070190Y0054522D01*
X0070242Y0054575D01*
X0070297Y0054625D01*
X0070354Y0054671D01*
X0070414Y0054715D01*
X0070476Y0054755D01*
X0070540Y0054792D01*
X0070606Y0054826D01*
X0070674Y0054856D01*
X0070743Y0054882D01*
X0070814Y0054905D01*
X0070885Y0054923D01*
X0070958Y0054938D01*
X0071031Y0054949D01*
X0071105Y0054956D01*
X0071179Y0054959D01*
X0071252Y0054958D01*
X0071326Y0054953D01*
X0071400Y0054944D01*
X0071473Y0054931D01*
X0071545Y0054914D01*
X0071616Y0054894D01*
X0071686Y0054869D01*
X0071754Y0054841D01*
X0071821Y0054810D01*
X0071886Y0054774D01*
X0071949Y0054736D01*
X0072010Y0054694D01*
X0072069Y0054648D01*
X0072125Y0054600D01*
X0072178Y0054549D01*
X0072228Y0054495D01*
X0072276Y0054438D01*
X0072320Y0054379D01*
X0072362Y0054317D01*
X0072400Y0054254D01*
X0072434Y0054188D01*
X0072465Y0054121D01*
X0072492Y0054052D01*
X0072515Y0053982D01*
X0072535Y0053911D01*
X0072551Y0053838D01*
X0072563Y0053765D01*
X0072571Y0053692D01*
X0072575Y0053618D01*
X0072575Y0053544D01*
X0072571Y0053470D01*
X0072563Y0053397D01*
X0072551Y0053324D01*
X0072535Y0053251D01*
X0072515Y0053180D01*
X0072492Y0053110D01*
X0072465Y0053041D01*
X0072434Y0052974D01*
X0072400Y0052908D01*
X0072362Y0052845D01*
X0072320Y0052783D01*
X0072276Y0052724D01*
X0072228Y0052667D01*
X0072178Y0052613D01*
X0072125Y0052562D01*
X0072069Y0052514D01*
X0072010Y0052468D01*
X0071949Y0052426D01*
X0071886Y0052388D01*
X0071821Y0052352D01*
X0071754Y0052321D01*
X0071686Y0052293D01*
X0071616Y0052268D01*
X0071545Y0052248D01*
X0071473Y0052231D01*
X0071400Y0052218D01*
X0071326Y0052209D01*
X0071252Y0052204D01*
X0071179Y0052203D01*
X0071105Y0052206D01*
X0071031Y0052213D01*
X0070958Y0052224D01*
X0070885Y0052239D01*
X0070814Y0052257D01*
X0070743Y0052280D01*
X0070674Y0052306D01*
X0070606Y0052336D01*
X0070540Y0052370D01*
X0070476Y0052407D01*
X0070414Y0052447D01*
X0070354Y0052491D01*
X0070297Y0052537D01*
X0070242Y0052587D01*
X0070190Y0052640D01*
X0070141Y0052695D01*
X0070095Y0052753D01*
X0070053Y0052814D01*
X0070013Y0052876D01*
X0069977Y0052941D01*
X0069944Y0053007D01*
X0069915Y0053075D01*
X0069890Y0053145D01*
X0069868Y0053215D01*
X0069851Y0053287D01*
X0069837Y0053360D01*
X0069827Y0053433D01*
X0069821Y0053507D01*
X0069819Y0053581D01*
X0069032Y0039408D02*
X0069034Y0039501D01*
X0069040Y0039593D01*
X0069050Y0039685D01*
X0069064Y0039776D01*
X0069081Y0039867D01*
X0069103Y0039957D01*
X0069128Y0040046D01*
X0069157Y0040134D01*
X0069190Y0040220D01*
X0069227Y0040305D01*
X0069267Y0040389D01*
X0069311Y0040470D01*
X0069358Y0040550D01*
X0069408Y0040628D01*
X0069462Y0040703D01*
X0069519Y0040776D01*
X0069579Y0040846D01*
X0069642Y0040914D01*
X0069708Y0040979D01*
X0069776Y0041041D01*
X0069847Y0041101D01*
X0069921Y0041157D01*
X0069997Y0041210D01*
X0070075Y0041259D01*
X0070155Y0041306D01*
X0070237Y0041348D01*
X0070321Y0041388D01*
X0070406Y0041423D01*
X0070493Y0041455D01*
X0070581Y0041484D01*
X0070670Y0041508D01*
X0070760Y0041529D01*
X0070851Y0041545D01*
X0070943Y0041558D01*
X0071035Y0041567D01*
X0071128Y0041572D01*
X0071220Y0041573D01*
X0071313Y0041570D01*
X0071405Y0041563D01*
X0071497Y0041552D01*
X0071588Y0041537D01*
X0071679Y0041519D01*
X0071769Y0041496D01*
X0071857Y0041470D01*
X0071945Y0041440D01*
X0072031Y0041406D01*
X0072115Y0041369D01*
X0072198Y0041327D01*
X0072279Y0041283D01*
X0072359Y0041235D01*
X0072436Y0041184D01*
X0072510Y0041129D01*
X0072583Y0041071D01*
X0072653Y0041011D01*
X0072720Y0040947D01*
X0072784Y0040881D01*
X0072846Y0040811D01*
X0072904Y0040740D01*
X0072959Y0040666D01*
X0073011Y0040589D01*
X0073060Y0040510D01*
X0073106Y0040430D01*
X0073148Y0040347D01*
X0073186Y0040263D01*
X0073221Y0040177D01*
X0073252Y0040090D01*
X0073279Y0040002D01*
X0073302Y0039912D01*
X0073322Y0039822D01*
X0073338Y0039731D01*
X0073350Y0039639D01*
X0073358Y0039547D01*
X0073362Y0039454D01*
X0073362Y0039362D01*
X0073358Y0039269D01*
X0073350Y0039177D01*
X0073338Y0039085D01*
X0073322Y0038994D01*
X0073302Y0038904D01*
X0073279Y0038814D01*
X0073252Y0038726D01*
X0073221Y0038639D01*
X0073186Y0038553D01*
X0073148Y0038469D01*
X0073106Y0038386D01*
X0073060Y0038306D01*
X0073011Y0038227D01*
X0072959Y0038150D01*
X0072904Y0038076D01*
X0072846Y0038005D01*
X0072784Y0037935D01*
X0072720Y0037869D01*
X0072653Y0037805D01*
X0072583Y0037745D01*
X0072510Y0037687D01*
X0072436Y0037632D01*
X0072359Y0037581D01*
X0072280Y0037533D01*
X0072198Y0037489D01*
X0072115Y0037447D01*
X0072031Y0037410D01*
X0071945Y0037376D01*
X0071857Y0037346D01*
X0071769Y0037320D01*
X0071679Y0037297D01*
X0071588Y0037279D01*
X0071497Y0037264D01*
X0071405Y0037253D01*
X0071313Y0037246D01*
X0071220Y0037243D01*
X0071128Y0037244D01*
X0071035Y0037249D01*
X0070943Y0037258D01*
X0070851Y0037271D01*
X0070760Y0037287D01*
X0070670Y0037308D01*
X0070581Y0037332D01*
X0070493Y0037361D01*
X0070406Y0037393D01*
X0070321Y0037428D01*
X0070237Y0037468D01*
X0070155Y0037510D01*
X0070075Y0037557D01*
X0069997Y0037606D01*
X0069921Y0037659D01*
X0069847Y0037715D01*
X0069776Y0037775D01*
X0069708Y0037837D01*
X0069642Y0037902D01*
X0069579Y0037970D01*
X0069519Y0038040D01*
X0069462Y0038113D01*
X0069408Y0038188D01*
X0069358Y0038266D01*
X0069311Y0038346D01*
X0069267Y0038427D01*
X0069227Y0038511D01*
X0069190Y0038596D01*
X0069157Y0038682D01*
X0069128Y0038770D01*
X0069103Y0038859D01*
X0069081Y0038949D01*
X0069064Y0039040D01*
X0069050Y0039131D01*
X0069040Y0039223D01*
X0069034Y0039315D01*
X0069032Y0039408D01*
X0069032Y0021692D02*
X0069034Y0021785D01*
X0069040Y0021877D01*
X0069050Y0021969D01*
X0069064Y0022060D01*
X0069081Y0022151D01*
X0069103Y0022241D01*
X0069128Y0022330D01*
X0069157Y0022418D01*
X0069190Y0022504D01*
X0069227Y0022589D01*
X0069267Y0022673D01*
X0069311Y0022754D01*
X0069358Y0022834D01*
X0069408Y0022912D01*
X0069462Y0022987D01*
X0069519Y0023060D01*
X0069579Y0023130D01*
X0069642Y0023198D01*
X0069708Y0023263D01*
X0069776Y0023325D01*
X0069847Y0023385D01*
X0069921Y0023441D01*
X0069997Y0023494D01*
X0070075Y0023543D01*
X0070155Y0023590D01*
X0070237Y0023632D01*
X0070321Y0023672D01*
X0070406Y0023707D01*
X0070493Y0023739D01*
X0070581Y0023768D01*
X0070670Y0023792D01*
X0070760Y0023813D01*
X0070851Y0023829D01*
X0070943Y0023842D01*
X0071035Y0023851D01*
X0071128Y0023856D01*
X0071220Y0023857D01*
X0071313Y0023854D01*
X0071405Y0023847D01*
X0071497Y0023836D01*
X0071588Y0023821D01*
X0071679Y0023803D01*
X0071769Y0023780D01*
X0071857Y0023754D01*
X0071945Y0023724D01*
X0072031Y0023690D01*
X0072115Y0023653D01*
X0072198Y0023611D01*
X0072279Y0023567D01*
X0072359Y0023519D01*
X0072436Y0023468D01*
X0072510Y0023413D01*
X0072583Y0023355D01*
X0072653Y0023295D01*
X0072720Y0023231D01*
X0072784Y0023165D01*
X0072846Y0023095D01*
X0072904Y0023024D01*
X0072959Y0022950D01*
X0073011Y0022873D01*
X0073060Y0022794D01*
X0073106Y0022714D01*
X0073148Y0022631D01*
X0073186Y0022547D01*
X0073221Y0022461D01*
X0073252Y0022374D01*
X0073279Y0022286D01*
X0073302Y0022196D01*
X0073322Y0022106D01*
X0073338Y0022015D01*
X0073350Y0021923D01*
X0073358Y0021831D01*
X0073362Y0021738D01*
X0073362Y0021646D01*
X0073358Y0021553D01*
X0073350Y0021461D01*
X0073338Y0021369D01*
X0073322Y0021278D01*
X0073302Y0021188D01*
X0073279Y0021098D01*
X0073252Y0021010D01*
X0073221Y0020923D01*
X0073186Y0020837D01*
X0073148Y0020753D01*
X0073106Y0020670D01*
X0073060Y0020590D01*
X0073011Y0020511D01*
X0072959Y0020434D01*
X0072904Y0020360D01*
X0072846Y0020289D01*
X0072784Y0020219D01*
X0072720Y0020153D01*
X0072653Y0020089D01*
X0072583Y0020029D01*
X0072510Y0019971D01*
X0072436Y0019916D01*
X0072359Y0019865D01*
X0072280Y0019817D01*
X0072198Y0019773D01*
X0072115Y0019731D01*
X0072031Y0019694D01*
X0071945Y0019660D01*
X0071857Y0019630D01*
X0071769Y0019604D01*
X0071679Y0019581D01*
X0071588Y0019563D01*
X0071497Y0019548D01*
X0071405Y0019537D01*
X0071313Y0019530D01*
X0071220Y0019527D01*
X0071128Y0019528D01*
X0071035Y0019533D01*
X0070943Y0019542D01*
X0070851Y0019555D01*
X0070760Y0019571D01*
X0070670Y0019592D01*
X0070581Y0019616D01*
X0070493Y0019645D01*
X0070406Y0019677D01*
X0070321Y0019712D01*
X0070237Y0019752D01*
X0070155Y0019794D01*
X0070075Y0019841D01*
X0069997Y0019890D01*
X0069921Y0019943D01*
X0069847Y0019999D01*
X0069776Y0020059D01*
X0069708Y0020121D01*
X0069642Y0020186D01*
X0069579Y0020254D01*
X0069519Y0020324D01*
X0069462Y0020397D01*
X0069408Y0020472D01*
X0069358Y0020550D01*
X0069311Y0020630D01*
X0069267Y0020711D01*
X0069227Y0020795D01*
X0069190Y0020880D01*
X0069157Y0020966D01*
X0069128Y0021054D01*
X0069103Y0021143D01*
X0069081Y0021233D01*
X0069064Y0021324D01*
X0069050Y0021415D01*
X0069040Y0021507D01*
X0069034Y0021599D01*
X0069032Y0021692D01*
X0069819Y0007519D02*
X0069821Y0007593D01*
X0069827Y0007667D01*
X0069837Y0007740D01*
X0069851Y0007813D01*
X0069868Y0007885D01*
X0069890Y0007955D01*
X0069915Y0008025D01*
X0069944Y0008093D01*
X0069977Y0008159D01*
X0070013Y0008224D01*
X0070053Y0008286D01*
X0070095Y0008347D01*
X0070141Y0008405D01*
X0070190Y0008460D01*
X0070242Y0008513D01*
X0070297Y0008563D01*
X0070354Y0008609D01*
X0070414Y0008653D01*
X0070476Y0008693D01*
X0070540Y0008730D01*
X0070606Y0008764D01*
X0070674Y0008794D01*
X0070743Y0008820D01*
X0070814Y0008843D01*
X0070885Y0008861D01*
X0070958Y0008876D01*
X0071031Y0008887D01*
X0071105Y0008894D01*
X0071179Y0008897D01*
X0071252Y0008896D01*
X0071326Y0008891D01*
X0071400Y0008882D01*
X0071473Y0008869D01*
X0071545Y0008852D01*
X0071616Y0008832D01*
X0071686Y0008807D01*
X0071754Y0008779D01*
X0071821Y0008748D01*
X0071886Y0008712D01*
X0071949Y0008674D01*
X0072010Y0008632D01*
X0072069Y0008586D01*
X0072125Y0008538D01*
X0072178Y0008487D01*
X0072228Y0008433D01*
X0072276Y0008376D01*
X0072320Y0008317D01*
X0072362Y0008255D01*
X0072400Y0008192D01*
X0072434Y0008126D01*
X0072465Y0008059D01*
X0072492Y0007990D01*
X0072515Y0007920D01*
X0072535Y0007849D01*
X0072551Y0007776D01*
X0072563Y0007703D01*
X0072571Y0007630D01*
X0072575Y0007556D01*
X0072575Y0007482D01*
X0072571Y0007408D01*
X0072563Y0007335D01*
X0072551Y0007262D01*
X0072535Y0007189D01*
X0072515Y0007118D01*
X0072492Y0007048D01*
X0072465Y0006979D01*
X0072434Y0006912D01*
X0072400Y0006846D01*
X0072362Y0006783D01*
X0072320Y0006721D01*
X0072276Y0006662D01*
X0072228Y0006605D01*
X0072178Y0006551D01*
X0072125Y0006500D01*
X0072069Y0006452D01*
X0072010Y0006406D01*
X0071949Y0006364D01*
X0071886Y0006326D01*
X0071821Y0006290D01*
X0071754Y0006259D01*
X0071686Y0006231D01*
X0071616Y0006206D01*
X0071545Y0006186D01*
X0071473Y0006169D01*
X0071400Y0006156D01*
X0071326Y0006147D01*
X0071252Y0006142D01*
X0071179Y0006141D01*
X0071105Y0006144D01*
X0071031Y0006151D01*
X0070958Y0006162D01*
X0070885Y0006177D01*
X0070814Y0006195D01*
X0070743Y0006218D01*
X0070674Y0006244D01*
X0070606Y0006274D01*
X0070540Y0006308D01*
X0070476Y0006345D01*
X0070414Y0006385D01*
X0070354Y0006429D01*
X0070297Y0006475D01*
X0070242Y0006525D01*
X0070190Y0006578D01*
X0070141Y0006633D01*
X0070095Y0006691D01*
X0070053Y0006752D01*
X0070013Y0006814D01*
X0069977Y0006879D01*
X0069944Y0006945D01*
X0069915Y0007013D01*
X0069890Y0007083D01*
X0069868Y0007153D01*
X0069851Y0007225D01*
X0069837Y0007298D01*
X0069827Y0007371D01*
X0069821Y0007445D01*
X0069819Y0007519D01*
M02*
