%
M48
M72
T01C0.01300
T02C0.01400
T03C0.02756
T04C0.04331
%
T01
X71197Y13050
X71197Y48050
T02
X87072Y11800
X106197Y30550
X92072Y40300
X153197Y12550
X137822Y24675
X113072Y16800
X108697Y17050
X133697Y38050
X121947Y44675
X121197Y48050
X118197Y51550
X152447Y49925
X161197Y46550
T03
X71197Y7519
X71197Y53581
T04
X71197Y21692
X71197Y39408
X148697Y27357
X148697Y41137
M30
