G75*
%MOIN*%
%OFA0B0*%
%FSLAX25Y25*%
%IPPOS*%
%LPD*%
%AMOC8*
5,1,8,0,0,1.08239X$1,22.5*
%
%ADD10C,0.00100*%
%ADD11C,0.08800*%
%ADD12C,0.01181*%
%ADD13C,0.00000*%
%ADD14C,0.00600*%
%ADD15C,0.02800*%
%ADD16C,0.01200*%
%ADD17C,0.02600*%
%ADD18C,0.02500*%
D10*
X0061197Y0006800D02*
X0061197Y0054300D01*
X0061203Y0054422D01*
X0061213Y0054543D01*
X0061226Y0054664D01*
X0061243Y0054785D01*
X0061264Y0054905D01*
X0061289Y0055024D01*
X0061318Y0055142D01*
X0061350Y0055260D01*
X0061386Y0055376D01*
X0061425Y0055491D01*
X0061468Y0055605D01*
X0061515Y0055718D01*
X0061565Y0055829D01*
X0061619Y0055938D01*
X0061676Y0056046D01*
X0061737Y0056151D01*
X0061800Y0056255D01*
X0061867Y0056357D01*
X0061937Y0056456D01*
X0062011Y0056554D01*
X0062087Y0056649D01*
X0062166Y0056741D01*
X0062248Y0056831D01*
X0062333Y0056919D01*
X0062420Y0057003D01*
X0062511Y0057085D01*
X0062603Y0057164D01*
X0062698Y0057240D01*
X0062796Y0057313D01*
X0062895Y0057383D01*
X0062997Y0057450D01*
X0063101Y0057514D01*
X0063207Y0057574D01*
X0063315Y0057631D01*
X0063424Y0057684D01*
X0063535Y0057734D01*
X0063648Y0057781D01*
X0063762Y0057824D01*
X0063877Y0057863D01*
X0063993Y0057899D01*
X0064111Y0057931D01*
X0064229Y0057959D01*
X0064349Y0057984D01*
X0064469Y0058005D01*
X0064589Y0058022D01*
X0064710Y0058035D01*
X0064832Y0058045D01*
X0064953Y0058050D01*
X0065075Y0058052D01*
X0065197Y0058050D01*
X0161197Y0058050D01*
X0161337Y0058048D01*
X0161477Y0058042D01*
X0161617Y0058032D01*
X0161757Y0058019D01*
X0161896Y0058001D01*
X0162035Y0057979D01*
X0162172Y0057954D01*
X0162310Y0057925D01*
X0162446Y0057892D01*
X0162581Y0057855D01*
X0162715Y0057814D01*
X0162848Y0057769D01*
X0162980Y0057721D01*
X0163110Y0057669D01*
X0163239Y0057614D01*
X0163366Y0057555D01*
X0163492Y0057492D01*
X0163616Y0057426D01*
X0163737Y0057357D01*
X0163857Y0057284D01*
X0163975Y0057207D01*
X0164090Y0057128D01*
X0164204Y0057045D01*
X0164314Y0056959D01*
X0164423Y0056870D01*
X0164529Y0056778D01*
X0164632Y0056683D01*
X0164733Y0056586D01*
X0164830Y0056485D01*
X0164925Y0056382D01*
X0165017Y0056276D01*
X0165106Y0056167D01*
X0165192Y0056057D01*
X0165275Y0055943D01*
X0165354Y0055828D01*
X0165431Y0055710D01*
X0165504Y0055590D01*
X0165573Y0055469D01*
X0165639Y0055345D01*
X0165702Y0055219D01*
X0165761Y0055092D01*
X0165816Y0054963D01*
X0165868Y0054833D01*
X0165916Y0054701D01*
X0165961Y0054568D01*
X0166002Y0054434D01*
X0166039Y0054299D01*
X0166072Y0054163D01*
X0166101Y0054025D01*
X0166126Y0053888D01*
X0166148Y0053749D01*
X0166166Y0053610D01*
X0166179Y0053470D01*
X0166189Y0053330D01*
X0166195Y0053190D01*
X0166197Y0053050D01*
X0166197Y0008050D01*
X0166195Y0007910D01*
X0166189Y0007770D01*
X0166179Y0007630D01*
X0166166Y0007490D01*
X0166148Y0007351D01*
X0166126Y0007212D01*
X0166101Y0007075D01*
X0166072Y0006937D01*
X0166039Y0006801D01*
X0166002Y0006666D01*
X0165961Y0006532D01*
X0165916Y0006399D01*
X0165868Y0006267D01*
X0165816Y0006137D01*
X0165761Y0006008D01*
X0165702Y0005881D01*
X0165639Y0005755D01*
X0165573Y0005631D01*
X0165504Y0005510D01*
X0165431Y0005390D01*
X0165354Y0005272D01*
X0165275Y0005157D01*
X0165192Y0005043D01*
X0165106Y0004933D01*
X0165017Y0004824D01*
X0164925Y0004718D01*
X0164830Y0004615D01*
X0164733Y0004514D01*
X0164632Y0004417D01*
X0164529Y0004322D01*
X0164423Y0004230D01*
X0164314Y0004141D01*
X0164204Y0004055D01*
X0164090Y0003972D01*
X0163975Y0003893D01*
X0163857Y0003816D01*
X0163737Y0003743D01*
X0163616Y0003674D01*
X0163492Y0003608D01*
X0163366Y0003545D01*
X0163239Y0003486D01*
X0163110Y0003431D01*
X0162980Y0003379D01*
X0162848Y0003331D01*
X0162715Y0003286D01*
X0162581Y0003245D01*
X0162446Y0003208D01*
X0162310Y0003175D01*
X0162172Y0003146D01*
X0162035Y0003121D01*
X0161896Y0003099D01*
X0161757Y0003081D01*
X0161617Y0003068D01*
X0161477Y0003058D01*
X0161337Y0003052D01*
X0161197Y0003050D01*
X0065197Y0003050D01*
X0065073Y0003048D01*
X0064948Y0003050D01*
X0064824Y0003056D01*
X0064700Y0003066D01*
X0064577Y0003080D01*
X0064454Y0003098D01*
X0064332Y0003119D01*
X0064210Y0003145D01*
X0064089Y0003175D01*
X0063970Y0003208D01*
X0063851Y0003245D01*
X0063734Y0003286D01*
X0063618Y0003331D01*
X0063503Y0003380D01*
X0063390Y0003432D01*
X0063279Y0003487D01*
X0063170Y0003547D01*
X0063063Y0003609D01*
X0062958Y0003675D01*
X0062855Y0003745D01*
X0062754Y0003817D01*
X0062655Y0003893D01*
X0062559Y0003972D01*
X0062466Y0004054D01*
X0062375Y0004139D01*
X0062287Y0004227D01*
X0062202Y0004318D01*
X0062120Y0004411D01*
X0062041Y0004507D01*
X0061965Y0004606D01*
X0061893Y0004706D01*
X0061823Y0004809D01*
X0061757Y0004915D01*
X0061694Y0005022D01*
X0061635Y0005131D01*
X0061579Y0005242D01*
X0061527Y0005355D01*
X0061479Y0005469D01*
X0061434Y0005585D01*
X0061393Y0005703D01*
X0061355Y0005821D01*
X0061322Y0005941D01*
X0061292Y0006062D01*
X0061267Y0006183D01*
X0061245Y0006306D01*
X0061227Y0006428D01*
X0061213Y0006552D01*
X0061203Y0006676D01*
X0061197Y0006800D01*
D11*
X0148697Y0027357D03*
X0148697Y0041137D03*
D12*
X0074740Y0051613D02*
X0067654Y0051613D01*
X0065685Y0053581D02*
X0065687Y0053667D01*
X0065692Y0053753D01*
X0065702Y0053838D01*
X0065715Y0053923D01*
X0065732Y0054007D01*
X0065752Y0054091D01*
X0065776Y0054173D01*
X0065804Y0054254D01*
X0065835Y0054335D01*
X0065869Y0054413D01*
X0065907Y0054490D01*
X0065949Y0054566D01*
X0065993Y0054639D01*
X0066041Y0054710D01*
X0066092Y0054780D01*
X0066146Y0054847D01*
X0066202Y0054911D01*
X0066262Y0054973D01*
X0066324Y0055033D01*
X0066388Y0055089D01*
X0066455Y0055143D01*
X0066525Y0055194D01*
X0066596Y0055242D01*
X0066670Y0055286D01*
X0066745Y0055328D01*
X0066822Y0055366D01*
X0066900Y0055400D01*
X0066981Y0055431D01*
X0067062Y0055459D01*
X0067144Y0055483D01*
X0067228Y0055503D01*
X0067312Y0055520D01*
X0067397Y0055533D01*
X0067482Y0055543D01*
X0067568Y0055548D01*
X0067654Y0055550D01*
X0074740Y0055550D01*
X0076709Y0053581D02*
X0076707Y0053495D01*
X0076702Y0053409D01*
X0076692Y0053324D01*
X0076679Y0053239D01*
X0076662Y0053155D01*
X0076642Y0053071D01*
X0076618Y0052989D01*
X0076590Y0052908D01*
X0076559Y0052827D01*
X0076525Y0052749D01*
X0076487Y0052672D01*
X0076445Y0052597D01*
X0076401Y0052523D01*
X0076353Y0052452D01*
X0076302Y0052382D01*
X0076248Y0052315D01*
X0076192Y0052251D01*
X0076132Y0052189D01*
X0076070Y0052129D01*
X0076006Y0052073D01*
X0075939Y0052019D01*
X0075869Y0051968D01*
X0075798Y0051920D01*
X0075725Y0051876D01*
X0075649Y0051834D01*
X0075572Y0051796D01*
X0075494Y0051762D01*
X0075413Y0051731D01*
X0075332Y0051703D01*
X0075250Y0051679D01*
X0075166Y0051659D01*
X0075082Y0051642D01*
X0074997Y0051629D01*
X0074912Y0051619D01*
X0074826Y0051614D01*
X0074740Y0051612D01*
X0076709Y0053581D02*
X0076707Y0053667D01*
X0076702Y0053753D01*
X0076692Y0053838D01*
X0076679Y0053923D01*
X0076662Y0054007D01*
X0076642Y0054091D01*
X0076618Y0054173D01*
X0076590Y0054254D01*
X0076559Y0054335D01*
X0076525Y0054413D01*
X0076487Y0054490D01*
X0076445Y0054566D01*
X0076401Y0054639D01*
X0076353Y0054710D01*
X0076302Y0054780D01*
X0076248Y0054847D01*
X0076192Y0054911D01*
X0076132Y0054973D01*
X0076070Y0055033D01*
X0076006Y0055089D01*
X0075939Y0055143D01*
X0075869Y0055194D01*
X0075798Y0055242D01*
X0075725Y0055286D01*
X0075649Y0055328D01*
X0075572Y0055366D01*
X0075494Y0055400D01*
X0075413Y0055431D01*
X0075332Y0055459D01*
X0075250Y0055483D01*
X0075166Y0055503D01*
X0075082Y0055520D01*
X0074997Y0055533D01*
X0074912Y0055543D01*
X0074826Y0055548D01*
X0074740Y0055550D01*
X0067654Y0051612D02*
X0067568Y0051614D01*
X0067482Y0051619D01*
X0067397Y0051629D01*
X0067312Y0051642D01*
X0067228Y0051659D01*
X0067144Y0051679D01*
X0067062Y0051703D01*
X0066981Y0051731D01*
X0066900Y0051762D01*
X0066822Y0051796D01*
X0066745Y0051834D01*
X0066670Y0051876D01*
X0066596Y0051920D01*
X0066525Y0051968D01*
X0066455Y0052019D01*
X0066388Y0052073D01*
X0066324Y0052129D01*
X0066262Y0052189D01*
X0066202Y0052251D01*
X0066146Y0052315D01*
X0066092Y0052382D01*
X0066041Y0052452D01*
X0065993Y0052523D01*
X0065949Y0052597D01*
X0065907Y0052672D01*
X0065869Y0052749D01*
X0065835Y0052827D01*
X0065804Y0052908D01*
X0065776Y0052989D01*
X0065752Y0053071D01*
X0065732Y0053155D01*
X0065715Y0053239D01*
X0065702Y0053324D01*
X0065692Y0053409D01*
X0065687Y0053495D01*
X0065685Y0053581D01*
X0067654Y0009487D02*
X0074740Y0009487D01*
X0076709Y0007519D02*
X0076707Y0007433D01*
X0076702Y0007347D01*
X0076692Y0007262D01*
X0076679Y0007177D01*
X0076662Y0007093D01*
X0076642Y0007009D01*
X0076618Y0006927D01*
X0076590Y0006846D01*
X0076559Y0006765D01*
X0076525Y0006687D01*
X0076487Y0006610D01*
X0076445Y0006534D01*
X0076401Y0006461D01*
X0076353Y0006390D01*
X0076302Y0006320D01*
X0076248Y0006253D01*
X0076192Y0006189D01*
X0076132Y0006127D01*
X0076070Y0006067D01*
X0076006Y0006011D01*
X0075939Y0005957D01*
X0075869Y0005906D01*
X0075798Y0005858D01*
X0075725Y0005814D01*
X0075649Y0005772D01*
X0075572Y0005734D01*
X0075494Y0005700D01*
X0075413Y0005669D01*
X0075332Y0005641D01*
X0075250Y0005617D01*
X0075166Y0005597D01*
X0075082Y0005580D01*
X0074997Y0005567D01*
X0074912Y0005557D01*
X0074826Y0005552D01*
X0074740Y0005550D01*
X0067654Y0005550D01*
X0065685Y0007519D02*
X0065687Y0007605D01*
X0065692Y0007691D01*
X0065702Y0007776D01*
X0065715Y0007861D01*
X0065732Y0007945D01*
X0065752Y0008029D01*
X0065776Y0008111D01*
X0065804Y0008192D01*
X0065835Y0008273D01*
X0065869Y0008351D01*
X0065907Y0008428D01*
X0065949Y0008504D01*
X0065993Y0008577D01*
X0066041Y0008648D01*
X0066092Y0008718D01*
X0066146Y0008785D01*
X0066202Y0008849D01*
X0066262Y0008911D01*
X0066324Y0008971D01*
X0066388Y0009027D01*
X0066455Y0009081D01*
X0066525Y0009132D01*
X0066596Y0009180D01*
X0066670Y0009224D01*
X0066745Y0009266D01*
X0066822Y0009304D01*
X0066900Y0009338D01*
X0066981Y0009369D01*
X0067062Y0009397D01*
X0067144Y0009421D01*
X0067228Y0009441D01*
X0067312Y0009458D01*
X0067397Y0009471D01*
X0067482Y0009481D01*
X0067568Y0009486D01*
X0067654Y0009488D01*
X0065685Y0007519D02*
X0065687Y0007433D01*
X0065692Y0007347D01*
X0065702Y0007262D01*
X0065715Y0007177D01*
X0065732Y0007093D01*
X0065752Y0007009D01*
X0065776Y0006927D01*
X0065804Y0006846D01*
X0065835Y0006765D01*
X0065869Y0006687D01*
X0065907Y0006610D01*
X0065949Y0006535D01*
X0065993Y0006461D01*
X0066041Y0006390D01*
X0066092Y0006320D01*
X0066146Y0006253D01*
X0066202Y0006189D01*
X0066262Y0006127D01*
X0066324Y0006067D01*
X0066388Y0006011D01*
X0066455Y0005957D01*
X0066525Y0005906D01*
X0066596Y0005858D01*
X0066670Y0005814D01*
X0066745Y0005772D01*
X0066822Y0005734D01*
X0066900Y0005700D01*
X0066981Y0005669D01*
X0067062Y0005641D01*
X0067144Y0005617D01*
X0067228Y0005597D01*
X0067312Y0005580D01*
X0067397Y0005567D01*
X0067482Y0005557D01*
X0067568Y0005552D01*
X0067654Y0005550D01*
X0074740Y0009488D02*
X0074826Y0009486D01*
X0074912Y0009481D01*
X0074997Y0009471D01*
X0075082Y0009458D01*
X0075166Y0009441D01*
X0075250Y0009421D01*
X0075332Y0009397D01*
X0075413Y0009369D01*
X0075494Y0009338D01*
X0075572Y0009304D01*
X0075649Y0009266D01*
X0075725Y0009224D01*
X0075798Y0009180D01*
X0075869Y0009132D01*
X0075939Y0009081D01*
X0076006Y0009027D01*
X0076070Y0008971D01*
X0076132Y0008911D01*
X0076192Y0008849D01*
X0076248Y0008785D01*
X0076302Y0008718D01*
X0076353Y0008648D01*
X0076401Y0008577D01*
X0076445Y0008504D01*
X0076487Y0008428D01*
X0076525Y0008351D01*
X0076559Y0008273D01*
X0076590Y0008192D01*
X0076618Y0008111D01*
X0076642Y0008029D01*
X0076662Y0007945D01*
X0076679Y0007861D01*
X0076692Y0007776D01*
X0076702Y0007691D01*
X0076707Y0007605D01*
X0076709Y0007519D01*
D13*
X0069819Y0007519D02*
X0069821Y0007593D01*
X0069827Y0007667D01*
X0069837Y0007740D01*
X0069851Y0007813D01*
X0069868Y0007885D01*
X0069890Y0007955D01*
X0069915Y0008025D01*
X0069944Y0008093D01*
X0069977Y0008159D01*
X0070013Y0008224D01*
X0070053Y0008286D01*
X0070095Y0008347D01*
X0070141Y0008405D01*
X0070190Y0008460D01*
X0070242Y0008513D01*
X0070297Y0008563D01*
X0070354Y0008609D01*
X0070414Y0008653D01*
X0070476Y0008693D01*
X0070540Y0008730D01*
X0070606Y0008764D01*
X0070674Y0008794D01*
X0070743Y0008820D01*
X0070814Y0008843D01*
X0070885Y0008861D01*
X0070958Y0008876D01*
X0071031Y0008887D01*
X0071105Y0008894D01*
X0071179Y0008897D01*
X0071252Y0008896D01*
X0071326Y0008891D01*
X0071400Y0008882D01*
X0071473Y0008869D01*
X0071545Y0008852D01*
X0071616Y0008832D01*
X0071686Y0008807D01*
X0071754Y0008779D01*
X0071821Y0008748D01*
X0071886Y0008712D01*
X0071949Y0008674D01*
X0072010Y0008632D01*
X0072069Y0008586D01*
X0072125Y0008538D01*
X0072178Y0008487D01*
X0072228Y0008433D01*
X0072276Y0008376D01*
X0072320Y0008317D01*
X0072362Y0008255D01*
X0072400Y0008192D01*
X0072434Y0008126D01*
X0072465Y0008059D01*
X0072492Y0007990D01*
X0072515Y0007920D01*
X0072535Y0007849D01*
X0072551Y0007776D01*
X0072563Y0007703D01*
X0072571Y0007630D01*
X0072575Y0007556D01*
X0072575Y0007482D01*
X0072571Y0007408D01*
X0072563Y0007335D01*
X0072551Y0007262D01*
X0072535Y0007189D01*
X0072515Y0007118D01*
X0072492Y0007048D01*
X0072465Y0006979D01*
X0072434Y0006912D01*
X0072400Y0006846D01*
X0072362Y0006783D01*
X0072320Y0006721D01*
X0072276Y0006662D01*
X0072228Y0006605D01*
X0072178Y0006551D01*
X0072125Y0006500D01*
X0072069Y0006452D01*
X0072010Y0006406D01*
X0071949Y0006364D01*
X0071886Y0006326D01*
X0071821Y0006290D01*
X0071754Y0006259D01*
X0071686Y0006231D01*
X0071616Y0006206D01*
X0071545Y0006186D01*
X0071473Y0006169D01*
X0071400Y0006156D01*
X0071326Y0006147D01*
X0071252Y0006142D01*
X0071179Y0006141D01*
X0071105Y0006144D01*
X0071031Y0006151D01*
X0070958Y0006162D01*
X0070885Y0006177D01*
X0070814Y0006195D01*
X0070743Y0006218D01*
X0070674Y0006244D01*
X0070606Y0006274D01*
X0070540Y0006308D01*
X0070476Y0006345D01*
X0070414Y0006385D01*
X0070354Y0006429D01*
X0070297Y0006475D01*
X0070242Y0006525D01*
X0070190Y0006578D01*
X0070141Y0006633D01*
X0070095Y0006691D01*
X0070053Y0006752D01*
X0070013Y0006814D01*
X0069977Y0006879D01*
X0069944Y0006945D01*
X0069915Y0007013D01*
X0069890Y0007083D01*
X0069868Y0007153D01*
X0069851Y0007225D01*
X0069837Y0007298D01*
X0069827Y0007371D01*
X0069821Y0007445D01*
X0069819Y0007519D01*
X0069032Y0021692D02*
X0069034Y0021785D01*
X0069040Y0021877D01*
X0069050Y0021969D01*
X0069064Y0022060D01*
X0069081Y0022151D01*
X0069103Y0022241D01*
X0069128Y0022330D01*
X0069157Y0022418D01*
X0069190Y0022504D01*
X0069227Y0022589D01*
X0069267Y0022673D01*
X0069311Y0022754D01*
X0069358Y0022834D01*
X0069408Y0022912D01*
X0069462Y0022987D01*
X0069519Y0023060D01*
X0069579Y0023130D01*
X0069642Y0023198D01*
X0069708Y0023263D01*
X0069776Y0023325D01*
X0069847Y0023385D01*
X0069921Y0023441D01*
X0069997Y0023494D01*
X0070075Y0023543D01*
X0070155Y0023590D01*
X0070237Y0023632D01*
X0070321Y0023672D01*
X0070406Y0023707D01*
X0070493Y0023739D01*
X0070581Y0023768D01*
X0070670Y0023792D01*
X0070760Y0023813D01*
X0070851Y0023829D01*
X0070943Y0023842D01*
X0071035Y0023851D01*
X0071128Y0023856D01*
X0071220Y0023857D01*
X0071313Y0023854D01*
X0071405Y0023847D01*
X0071497Y0023836D01*
X0071588Y0023821D01*
X0071679Y0023803D01*
X0071769Y0023780D01*
X0071857Y0023754D01*
X0071945Y0023724D01*
X0072031Y0023690D01*
X0072115Y0023653D01*
X0072198Y0023611D01*
X0072279Y0023567D01*
X0072359Y0023519D01*
X0072436Y0023468D01*
X0072510Y0023413D01*
X0072583Y0023355D01*
X0072653Y0023295D01*
X0072720Y0023231D01*
X0072784Y0023165D01*
X0072846Y0023095D01*
X0072904Y0023024D01*
X0072959Y0022950D01*
X0073011Y0022873D01*
X0073060Y0022794D01*
X0073106Y0022714D01*
X0073148Y0022631D01*
X0073186Y0022547D01*
X0073221Y0022461D01*
X0073252Y0022374D01*
X0073279Y0022286D01*
X0073302Y0022196D01*
X0073322Y0022106D01*
X0073338Y0022015D01*
X0073350Y0021923D01*
X0073358Y0021831D01*
X0073362Y0021738D01*
X0073362Y0021646D01*
X0073358Y0021553D01*
X0073350Y0021461D01*
X0073338Y0021369D01*
X0073322Y0021278D01*
X0073302Y0021188D01*
X0073279Y0021098D01*
X0073252Y0021010D01*
X0073221Y0020923D01*
X0073186Y0020837D01*
X0073148Y0020753D01*
X0073106Y0020670D01*
X0073060Y0020590D01*
X0073011Y0020511D01*
X0072959Y0020434D01*
X0072904Y0020360D01*
X0072846Y0020289D01*
X0072784Y0020219D01*
X0072720Y0020153D01*
X0072653Y0020089D01*
X0072583Y0020029D01*
X0072510Y0019971D01*
X0072436Y0019916D01*
X0072359Y0019865D01*
X0072280Y0019817D01*
X0072198Y0019773D01*
X0072115Y0019731D01*
X0072031Y0019694D01*
X0071945Y0019660D01*
X0071857Y0019630D01*
X0071769Y0019604D01*
X0071679Y0019581D01*
X0071588Y0019563D01*
X0071497Y0019548D01*
X0071405Y0019537D01*
X0071313Y0019530D01*
X0071220Y0019527D01*
X0071128Y0019528D01*
X0071035Y0019533D01*
X0070943Y0019542D01*
X0070851Y0019555D01*
X0070760Y0019571D01*
X0070670Y0019592D01*
X0070581Y0019616D01*
X0070493Y0019645D01*
X0070406Y0019677D01*
X0070321Y0019712D01*
X0070237Y0019752D01*
X0070155Y0019794D01*
X0070075Y0019841D01*
X0069997Y0019890D01*
X0069921Y0019943D01*
X0069847Y0019999D01*
X0069776Y0020059D01*
X0069708Y0020121D01*
X0069642Y0020186D01*
X0069579Y0020254D01*
X0069519Y0020324D01*
X0069462Y0020397D01*
X0069408Y0020472D01*
X0069358Y0020550D01*
X0069311Y0020630D01*
X0069267Y0020711D01*
X0069227Y0020795D01*
X0069190Y0020880D01*
X0069157Y0020966D01*
X0069128Y0021054D01*
X0069103Y0021143D01*
X0069081Y0021233D01*
X0069064Y0021324D01*
X0069050Y0021415D01*
X0069040Y0021507D01*
X0069034Y0021599D01*
X0069032Y0021692D01*
X0069032Y0039408D02*
X0069034Y0039501D01*
X0069040Y0039593D01*
X0069050Y0039685D01*
X0069064Y0039776D01*
X0069081Y0039867D01*
X0069103Y0039957D01*
X0069128Y0040046D01*
X0069157Y0040134D01*
X0069190Y0040220D01*
X0069227Y0040305D01*
X0069267Y0040389D01*
X0069311Y0040470D01*
X0069358Y0040550D01*
X0069408Y0040628D01*
X0069462Y0040703D01*
X0069519Y0040776D01*
X0069579Y0040846D01*
X0069642Y0040914D01*
X0069708Y0040979D01*
X0069776Y0041041D01*
X0069847Y0041101D01*
X0069921Y0041157D01*
X0069997Y0041210D01*
X0070075Y0041259D01*
X0070155Y0041306D01*
X0070237Y0041348D01*
X0070321Y0041388D01*
X0070406Y0041423D01*
X0070493Y0041455D01*
X0070581Y0041484D01*
X0070670Y0041508D01*
X0070760Y0041529D01*
X0070851Y0041545D01*
X0070943Y0041558D01*
X0071035Y0041567D01*
X0071128Y0041572D01*
X0071220Y0041573D01*
X0071313Y0041570D01*
X0071405Y0041563D01*
X0071497Y0041552D01*
X0071588Y0041537D01*
X0071679Y0041519D01*
X0071769Y0041496D01*
X0071857Y0041470D01*
X0071945Y0041440D01*
X0072031Y0041406D01*
X0072115Y0041369D01*
X0072198Y0041327D01*
X0072279Y0041283D01*
X0072359Y0041235D01*
X0072436Y0041184D01*
X0072510Y0041129D01*
X0072583Y0041071D01*
X0072653Y0041011D01*
X0072720Y0040947D01*
X0072784Y0040881D01*
X0072846Y0040811D01*
X0072904Y0040740D01*
X0072959Y0040666D01*
X0073011Y0040589D01*
X0073060Y0040510D01*
X0073106Y0040430D01*
X0073148Y0040347D01*
X0073186Y0040263D01*
X0073221Y0040177D01*
X0073252Y0040090D01*
X0073279Y0040002D01*
X0073302Y0039912D01*
X0073322Y0039822D01*
X0073338Y0039731D01*
X0073350Y0039639D01*
X0073358Y0039547D01*
X0073362Y0039454D01*
X0073362Y0039362D01*
X0073358Y0039269D01*
X0073350Y0039177D01*
X0073338Y0039085D01*
X0073322Y0038994D01*
X0073302Y0038904D01*
X0073279Y0038814D01*
X0073252Y0038726D01*
X0073221Y0038639D01*
X0073186Y0038553D01*
X0073148Y0038469D01*
X0073106Y0038386D01*
X0073060Y0038306D01*
X0073011Y0038227D01*
X0072959Y0038150D01*
X0072904Y0038076D01*
X0072846Y0038005D01*
X0072784Y0037935D01*
X0072720Y0037869D01*
X0072653Y0037805D01*
X0072583Y0037745D01*
X0072510Y0037687D01*
X0072436Y0037632D01*
X0072359Y0037581D01*
X0072280Y0037533D01*
X0072198Y0037489D01*
X0072115Y0037447D01*
X0072031Y0037410D01*
X0071945Y0037376D01*
X0071857Y0037346D01*
X0071769Y0037320D01*
X0071679Y0037297D01*
X0071588Y0037279D01*
X0071497Y0037264D01*
X0071405Y0037253D01*
X0071313Y0037246D01*
X0071220Y0037243D01*
X0071128Y0037244D01*
X0071035Y0037249D01*
X0070943Y0037258D01*
X0070851Y0037271D01*
X0070760Y0037287D01*
X0070670Y0037308D01*
X0070581Y0037332D01*
X0070493Y0037361D01*
X0070406Y0037393D01*
X0070321Y0037428D01*
X0070237Y0037468D01*
X0070155Y0037510D01*
X0070075Y0037557D01*
X0069997Y0037606D01*
X0069921Y0037659D01*
X0069847Y0037715D01*
X0069776Y0037775D01*
X0069708Y0037837D01*
X0069642Y0037902D01*
X0069579Y0037970D01*
X0069519Y0038040D01*
X0069462Y0038113D01*
X0069408Y0038188D01*
X0069358Y0038266D01*
X0069311Y0038346D01*
X0069267Y0038427D01*
X0069227Y0038511D01*
X0069190Y0038596D01*
X0069157Y0038682D01*
X0069128Y0038770D01*
X0069103Y0038859D01*
X0069081Y0038949D01*
X0069064Y0039040D01*
X0069050Y0039131D01*
X0069040Y0039223D01*
X0069034Y0039315D01*
X0069032Y0039408D01*
X0069819Y0053581D02*
X0069821Y0053655D01*
X0069827Y0053729D01*
X0069837Y0053802D01*
X0069851Y0053875D01*
X0069868Y0053947D01*
X0069890Y0054017D01*
X0069915Y0054087D01*
X0069944Y0054155D01*
X0069977Y0054221D01*
X0070013Y0054286D01*
X0070053Y0054348D01*
X0070095Y0054409D01*
X0070141Y0054467D01*
X0070190Y0054522D01*
X0070242Y0054575D01*
X0070297Y0054625D01*
X0070354Y0054671D01*
X0070414Y0054715D01*
X0070476Y0054755D01*
X0070540Y0054792D01*
X0070606Y0054826D01*
X0070674Y0054856D01*
X0070743Y0054882D01*
X0070814Y0054905D01*
X0070885Y0054923D01*
X0070958Y0054938D01*
X0071031Y0054949D01*
X0071105Y0054956D01*
X0071179Y0054959D01*
X0071252Y0054958D01*
X0071326Y0054953D01*
X0071400Y0054944D01*
X0071473Y0054931D01*
X0071545Y0054914D01*
X0071616Y0054894D01*
X0071686Y0054869D01*
X0071754Y0054841D01*
X0071821Y0054810D01*
X0071886Y0054774D01*
X0071949Y0054736D01*
X0072010Y0054694D01*
X0072069Y0054648D01*
X0072125Y0054600D01*
X0072178Y0054549D01*
X0072228Y0054495D01*
X0072276Y0054438D01*
X0072320Y0054379D01*
X0072362Y0054317D01*
X0072400Y0054254D01*
X0072434Y0054188D01*
X0072465Y0054121D01*
X0072492Y0054052D01*
X0072515Y0053982D01*
X0072535Y0053911D01*
X0072551Y0053838D01*
X0072563Y0053765D01*
X0072571Y0053692D01*
X0072575Y0053618D01*
X0072575Y0053544D01*
X0072571Y0053470D01*
X0072563Y0053397D01*
X0072551Y0053324D01*
X0072535Y0053251D01*
X0072515Y0053180D01*
X0072492Y0053110D01*
X0072465Y0053041D01*
X0072434Y0052974D01*
X0072400Y0052908D01*
X0072362Y0052845D01*
X0072320Y0052783D01*
X0072276Y0052724D01*
X0072228Y0052667D01*
X0072178Y0052613D01*
X0072125Y0052562D01*
X0072069Y0052514D01*
X0072010Y0052468D01*
X0071949Y0052426D01*
X0071886Y0052388D01*
X0071821Y0052352D01*
X0071754Y0052321D01*
X0071686Y0052293D01*
X0071616Y0052268D01*
X0071545Y0052248D01*
X0071473Y0052231D01*
X0071400Y0052218D01*
X0071326Y0052209D01*
X0071252Y0052204D01*
X0071179Y0052203D01*
X0071105Y0052206D01*
X0071031Y0052213D01*
X0070958Y0052224D01*
X0070885Y0052239D01*
X0070814Y0052257D01*
X0070743Y0052280D01*
X0070674Y0052306D01*
X0070606Y0052336D01*
X0070540Y0052370D01*
X0070476Y0052407D01*
X0070414Y0052447D01*
X0070354Y0052491D01*
X0070297Y0052537D01*
X0070242Y0052587D01*
X0070190Y0052640D01*
X0070141Y0052695D01*
X0070095Y0052753D01*
X0070053Y0052814D01*
X0070013Y0052876D01*
X0069977Y0052941D01*
X0069944Y0053007D01*
X0069915Y0053075D01*
X0069890Y0053145D01*
X0069868Y0053215D01*
X0069851Y0053287D01*
X0069837Y0053360D01*
X0069827Y0053433D01*
X0069821Y0053507D01*
X0069819Y0053581D01*
D14*
X0064829Y0050756D02*
X0063794Y0052547D01*
X0063794Y0054616D01*
X0064829Y0056406D01*
X0064829Y0056407D01*
X0064829Y0056407D01*
X0065328Y0056695D01*
X0065175Y0056700D01*
X0065146Y0056700D01*
X0064497Y0056636D01*
X0063344Y0056019D01*
X0062653Y0054907D01*
X0062547Y0054261D01*
X0062547Y0006839D01*
X0062653Y0006193D01*
X0063344Y0005081D01*
X0064497Y0004464D01*
X0065146Y0004400D01*
X0065175Y0004400D01*
X0065328Y0004405D01*
X0064829Y0004693D01*
X0064829Y0004693D01*
X0063795Y0006484D01*
X0063794Y0006484D01*
X0063794Y0008553D01*
X0064829Y0010344D01*
X0064829Y0010344D01*
X0066620Y0011378D01*
X0072947Y0011378D01*
X0072947Y0018666D01*
X0071886Y0018226D01*
X0070508Y0018226D01*
X0069234Y0018754D01*
X0068259Y0019729D01*
X0067731Y0021002D01*
X0067731Y0022381D01*
X0068259Y0023655D01*
X0069234Y0024630D01*
X0070508Y0025157D01*
X0071886Y0025157D01*
X0072947Y0024718D01*
X0072947Y0036382D01*
X0071886Y0035943D01*
X0070508Y0035943D01*
X0069234Y0036470D01*
X0068259Y0037445D01*
X0067731Y0038719D01*
X0067731Y0040098D01*
X0068259Y0041371D01*
X0069234Y0042346D01*
X0070508Y0042874D01*
X0071886Y0042874D01*
X0072947Y0042434D01*
X0072947Y0049722D01*
X0066620Y0049722D01*
X0064829Y0050756D01*
X0064829Y0050756D01*
X0064829Y0050756D01*
X0064859Y0050739D02*
X0062547Y0050739D01*
X0062547Y0050141D02*
X0065895Y0050141D01*
X0064493Y0051338D02*
X0062547Y0051338D01*
X0062547Y0051936D02*
X0064147Y0051936D01*
X0063802Y0052535D02*
X0062547Y0052535D01*
X0062547Y0053133D02*
X0063794Y0053133D01*
X0063794Y0053732D02*
X0062547Y0053732D01*
X0062558Y0054330D02*
X0063794Y0054330D01*
X0063975Y0054929D02*
X0062667Y0054929D01*
X0063038Y0055527D02*
X0064321Y0055527D01*
X0064666Y0056126D02*
X0063544Y0056126D01*
X0076498Y0050141D02*
X0119611Y0050141D01*
X0119724Y0050254D02*
X0118993Y0049523D01*
X0118597Y0048567D01*
X0118597Y0048137D01*
X0116797Y0046337D01*
X0116797Y0027837D01*
X0108710Y0019750D01*
X0108160Y0019750D01*
X0107167Y0019339D01*
X0106408Y0018579D01*
X0105997Y0017587D01*
X0105997Y0016513D01*
X0106408Y0015521D01*
X0107167Y0014761D01*
X0108160Y0014350D01*
X0109234Y0014350D01*
X0110226Y0014761D01*
X0110986Y0015521D01*
X0111397Y0016513D01*
X0111397Y0017063D01*
X0120597Y0026263D01*
X0120597Y0027263D01*
X0125484Y0032150D01*
X0145429Y0032150D01*
X0143865Y0030586D01*
X0142997Y0028491D01*
X0142997Y0026223D01*
X0143865Y0024128D01*
X0145468Y0022525D01*
X0147563Y0021657D01*
X0149831Y0021657D01*
X0151926Y0022525D01*
X0153529Y0024128D01*
X0154397Y0026223D01*
X0154397Y0028491D01*
X0153529Y0030586D01*
X0151965Y0032150D01*
X0157984Y0032150D01*
X0161984Y0036150D01*
X0163097Y0037263D01*
X0163097Y0044632D01*
X0163486Y0045021D01*
X0163897Y0046013D01*
X0163897Y0047087D01*
X0163486Y0048079D01*
X0162726Y0048839D01*
X0161734Y0049250D01*
X0160660Y0049250D01*
X0159667Y0048839D01*
X0158908Y0048079D01*
X0158497Y0047087D01*
X0158497Y0046013D01*
X0158908Y0045021D01*
X0159297Y0044632D01*
X0159297Y0038837D01*
X0156410Y0035950D01*
X0151070Y0035950D01*
X0151926Y0036304D01*
X0153529Y0037908D01*
X0154397Y0040003D01*
X0154397Y0042270D01*
X0153529Y0044365D01*
X0151926Y0045969D01*
X0149831Y0046837D01*
X0147563Y0046837D01*
X0145468Y0045969D01*
X0143865Y0044365D01*
X0142997Y0042270D01*
X0142997Y0040003D01*
X0143865Y0037908D01*
X0145468Y0036304D01*
X0146324Y0035950D01*
X0123910Y0035950D01*
X0122797Y0034837D01*
X0120597Y0032637D01*
X0120597Y0044763D01*
X0121284Y0045450D01*
X0121714Y0045450D01*
X0122670Y0045846D01*
X0123401Y0046577D01*
X0123797Y0047533D01*
X0123797Y0048567D01*
X0123401Y0049523D01*
X0122670Y0050254D01*
X0121714Y0050650D01*
X0120680Y0050650D01*
X0119724Y0050254D01*
X0119012Y0049542D02*
X0074697Y0049542D01*
X0074697Y0049722D02*
X0075774Y0049722D01*
X0077565Y0050756D01*
X0078599Y0052547D01*
X0078599Y0054616D01*
X0077565Y0056406D01*
X0077565Y0056407D01*
X0077057Y0056700D01*
X0161197Y0056700D01*
X0161909Y0056630D01*
X0163225Y0056085D01*
X0164232Y0055078D01*
X0164777Y0053762D01*
X0164847Y0053050D01*
X0164847Y0008050D01*
X0164777Y0007338D01*
X0164232Y0006022D01*
X0163225Y0005015D01*
X0161909Y0004470D01*
X0161197Y0004400D01*
X0077057Y0004400D01*
X0077565Y0004693D01*
X0077565Y0004693D01*
X0077565Y0004693D01*
X0078599Y0006484D01*
X0078599Y0006735D01*
X0078599Y0008553D01*
X0077565Y0010344D01*
X0075774Y0011378D01*
X0074697Y0011378D01*
X0074697Y0049722D01*
X0074697Y0048944D02*
X0118753Y0048944D01*
X0118597Y0048345D02*
X0074697Y0048345D01*
X0074697Y0047747D02*
X0118206Y0047747D01*
X0117608Y0047148D02*
X0074697Y0047148D01*
X0074697Y0046550D02*
X0117009Y0046550D01*
X0116797Y0045951D02*
X0074697Y0045951D01*
X0074697Y0045353D02*
X0116797Y0045353D01*
X0116797Y0044754D02*
X0074697Y0044754D01*
X0074697Y0044155D02*
X0116797Y0044155D01*
X0116797Y0043557D02*
X0074697Y0043557D01*
X0074697Y0042958D02*
X0116797Y0042958D01*
X0116797Y0042360D02*
X0074697Y0042360D01*
X0074697Y0041761D02*
X0116797Y0041761D01*
X0116797Y0041163D02*
X0074697Y0041163D01*
X0074697Y0040564D02*
X0116797Y0040564D01*
X0116797Y0039966D02*
X0074697Y0039966D01*
X0074697Y0039367D02*
X0116797Y0039367D01*
X0116797Y0038769D02*
X0074697Y0038769D01*
X0074697Y0038170D02*
X0116797Y0038170D01*
X0116797Y0037572D02*
X0074697Y0037572D01*
X0074697Y0036973D02*
X0116797Y0036973D01*
X0116797Y0036375D02*
X0074697Y0036375D01*
X0074697Y0035776D02*
X0116797Y0035776D01*
X0116797Y0035178D02*
X0074697Y0035178D01*
X0074697Y0034579D02*
X0116797Y0034579D01*
X0116797Y0033981D02*
X0074697Y0033981D01*
X0074697Y0033382D02*
X0116797Y0033382D01*
X0116797Y0032784D02*
X0074697Y0032784D01*
X0074697Y0032185D02*
X0116797Y0032185D01*
X0116797Y0031587D02*
X0074697Y0031587D01*
X0074697Y0030988D02*
X0116797Y0030988D01*
X0116797Y0030390D02*
X0074697Y0030390D01*
X0074697Y0029791D02*
X0116797Y0029791D01*
X0116797Y0029193D02*
X0074697Y0029193D01*
X0074697Y0028594D02*
X0116797Y0028594D01*
X0116797Y0027996D02*
X0074697Y0027996D01*
X0074697Y0027397D02*
X0116357Y0027397D01*
X0115759Y0026799D02*
X0074697Y0026799D01*
X0074697Y0026200D02*
X0115160Y0026200D01*
X0114562Y0025602D02*
X0074697Y0025602D01*
X0074697Y0025003D02*
X0113963Y0025003D01*
X0113364Y0024405D02*
X0074697Y0024405D01*
X0074697Y0023806D02*
X0112766Y0023806D01*
X0112167Y0023208D02*
X0074697Y0023208D01*
X0074697Y0022609D02*
X0111569Y0022609D01*
X0110970Y0022011D02*
X0074697Y0022011D01*
X0074697Y0021412D02*
X0110372Y0021412D01*
X0109773Y0020814D02*
X0074697Y0020814D01*
X0074697Y0020215D02*
X0109175Y0020215D01*
X0107838Y0019617D02*
X0074697Y0019617D01*
X0074697Y0019018D02*
X0106847Y0019018D01*
X0106342Y0018420D02*
X0074697Y0018420D01*
X0074697Y0017821D02*
X0106094Y0017821D01*
X0105997Y0017222D02*
X0074697Y0017222D01*
X0074697Y0016624D02*
X0105997Y0016624D01*
X0106199Y0016025D02*
X0074697Y0016025D01*
X0074697Y0015427D02*
X0106502Y0015427D01*
X0107100Y0014828D02*
X0074697Y0014828D01*
X0074697Y0014230D02*
X0164847Y0014230D01*
X0164847Y0014828D02*
X0110294Y0014828D01*
X0110892Y0015427D02*
X0164847Y0015427D01*
X0164847Y0016025D02*
X0111195Y0016025D01*
X0111397Y0016624D02*
X0164847Y0016624D01*
X0164847Y0017222D02*
X0111556Y0017222D01*
X0112155Y0017821D02*
X0164847Y0017821D01*
X0164847Y0018420D02*
X0112753Y0018420D01*
X0113352Y0019018D02*
X0164847Y0019018D01*
X0164847Y0019617D02*
X0113950Y0019617D01*
X0114549Y0020215D02*
X0164847Y0020215D01*
X0164847Y0020814D02*
X0115147Y0020814D01*
X0115746Y0021412D02*
X0164847Y0021412D01*
X0164847Y0022011D02*
X0150684Y0022011D01*
X0152010Y0022609D02*
X0164847Y0022609D01*
X0164847Y0023208D02*
X0152608Y0023208D01*
X0153207Y0023806D02*
X0164847Y0023806D01*
X0164847Y0024405D02*
X0153644Y0024405D01*
X0153891Y0025003D02*
X0164847Y0025003D01*
X0164847Y0025602D02*
X0154139Y0025602D01*
X0154387Y0026200D02*
X0164847Y0026200D01*
X0164847Y0026799D02*
X0154397Y0026799D01*
X0154397Y0027397D02*
X0164847Y0027397D01*
X0164847Y0027996D02*
X0154397Y0027996D01*
X0154354Y0028594D02*
X0164847Y0028594D01*
X0164847Y0029193D02*
X0154106Y0029193D01*
X0153858Y0029791D02*
X0164847Y0029791D01*
X0164847Y0030390D02*
X0153610Y0030390D01*
X0153127Y0030988D02*
X0164847Y0030988D01*
X0164847Y0031587D02*
X0152528Y0031587D01*
X0158019Y0032185D02*
X0164847Y0032185D01*
X0164847Y0032784D02*
X0158618Y0032784D01*
X0159216Y0033382D02*
X0164847Y0033382D01*
X0164847Y0033981D02*
X0159815Y0033981D01*
X0160413Y0034579D02*
X0164847Y0034579D01*
X0164847Y0035178D02*
X0161012Y0035178D01*
X0161610Y0035776D02*
X0164847Y0035776D01*
X0164847Y0036375D02*
X0162209Y0036375D01*
X0162807Y0036973D02*
X0164847Y0036973D01*
X0164847Y0037572D02*
X0163097Y0037572D01*
X0163097Y0038170D02*
X0164847Y0038170D01*
X0164847Y0038769D02*
X0163097Y0038769D01*
X0163097Y0039367D02*
X0164847Y0039367D01*
X0164847Y0039966D02*
X0163097Y0039966D01*
X0163097Y0040564D02*
X0164847Y0040564D01*
X0164847Y0041163D02*
X0163097Y0041163D01*
X0163097Y0041761D02*
X0164847Y0041761D01*
X0164847Y0042360D02*
X0163097Y0042360D01*
X0163097Y0042958D02*
X0164847Y0042958D01*
X0164847Y0043557D02*
X0163097Y0043557D01*
X0163097Y0044155D02*
X0164847Y0044155D01*
X0164847Y0044754D02*
X0163219Y0044754D01*
X0163623Y0045353D02*
X0164847Y0045353D01*
X0164847Y0045951D02*
X0163871Y0045951D01*
X0163897Y0046550D02*
X0164847Y0046550D01*
X0164847Y0047148D02*
X0163872Y0047148D01*
X0163624Y0047747D02*
X0164847Y0047747D01*
X0164847Y0048345D02*
X0163220Y0048345D01*
X0162474Y0048944D02*
X0164847Y0048944D01*
X0164847Y0049542D02*
X0123382Y0049542D01*
X0123641Y0048944D02*
X0159920Y0048944D01*
X0159174Y0048345D02*
X0123797Y0048345D01*
X0123797Y0047747D02*
X0158770Y0047747D01*
X0158522Y0047148D02*
X0123637Y0047148D01*
X0123373Y0046550D02*
X0146870Y0046550D01*
X0145450Y0045951D02*
X0122775Y0045951D01*
X0121186Y0045353D02*
X0144852Y0045353D01*
X0144253Y0044754D02*
X0120597Y0044754D01*
X0120597Y0044155D02*
X0143778Y0044155D01*
X0143530Y0043557D02*
X0120597Y0043557D01*
X0120597Y0042958D02*
X0143282Y0042958D01*
X0143034Y0042360D02*
X0120597Y0042360D01*
X0120597Y0041761D02*
X0142997Y0041761D01*
X0142997Y0041163D02*
X0120597Y0041163D01*
X0120597Y0040564D02*
X0142997Y0040564D01*
X0143012Y0039966D02*
X0120597Y0039966D01*
X0120597Y0039367D02*
X0143260Y0039367D01*
X0143508Y0038769D02*
X0120597Y0038769D01*
X0120597Y0038170D02*
X0143756Y0038170D01*
X0144201Y0037572D02*
X0120597Y0037572D01*
X0120597Y0036973D02*
X0144799Y0036973D01*
X0145398Y0036375D02*
X0120597Y0036375D01*
X0120597Y0035776D02*
X0123736Y0035776D01*
X0123138Y0035178D02*
X0120597Y0035178D01*
X0120597Y0034579D02*
X0122539Y0034579D01*
X0121941Y0033981D02*
X0120597Y0033981D01*
X0120597Y0033382D02*
X0121342Y0033382D01*
X0120744Y0032784D02*
X0120597Y0032784D01*
X0124322Y0030988D02*
X0144267Y0030988D01*
X0143783Y0030390D02*
X0123724Y0030390D01*
X0123125Y0029791D02*
X0143535Y0029791D01*
X0143288Y0029193D02*
X0122527Y0029193D01*
X0121928Y0028594D02*
X0143040Y0028594D01*
X0142997Y0027996D02*
X0121330Y0027996D01*
X0120731Y0027397D02*
X0142997Y0027397D01*
X0142997Y0026799D02*
X0120597Y0026799D01*
X0120534Y0026200D02*
X0143006Y0026200D01*
X0143254Y0025602D02*
X0119935Y0025602D01*
X0119337Y0025003D02*
X0143502Y0025003D01*
X0143750Y0024405D02*
X0118738Y0024405D01*
X0118140Y0023806D02*
X0144187Y0023806D01*
X0144785Y0023208D02*
X0117541Y0023208D01*
X0116943Y0022609D02*
X0145384Y0022609D01*
X0146710Y0022011D02*
X0116344Y0022011D01*
X0124921Y0031587D02*
X0144866Y0031587D01*
X0151996Y0036375D02*
X0156835Y0036375D01*
X0157433Y0036973D02*
X0152595Y0036973D01*
X0153193Y0037572D02*
X0158032Y0037572D01*
X0158630Y0038170D02*
X0153638Y0038170D01*
X0153886Y0038769D02*
X0159229Y0038769D01*
X0159297Y0039367D02*
X0154134Y0039367D01*
X0154382Y0039966D02*
X0159297Y0039966D01*
X0159297Y0040564D02*
X0154397Y0040564D01*
X0154397Y0041163D02*
X0159297Y0041163D01*
X0159297Y0041761D02*
X0154397Y0041761D01*
X0154360Y0042360D02*
X0159297Y0042360D01*
X0159297Y0042958D02*
X0154112Y0042958D01*
X0153864Y0043557D02*
X0159297Y0043557D01*
X0159297Y0044155D02*
X0153616Y0044155D01*
X0153140Y0044754D02*
X0159174Y0044754D01*
X0158770Y0045353D02*
X0152542Y0045353D01*
X0151943Y0045951D02*
X0158522Y0045951D01*
X0158497Y0046550D02*
X0150524Y0046550D01*
X0164847Y0050141D02*
X0122783Y0050141D01*
X0163126Y0056126D02*
X0077727Y0056126D01*
X0077565Y0056407D02*
X0077565Y0056407D01*
X0078073Y0055527D02*
X0163782Y0055527D01*
X0164293Y0054929D02*
X0078418Y0054929D01*
X0078599Y0054330D02*
X0164541Y0054330D01*
X0164780Y0053732D02*
X0078599Y0053732D01*
X0078599Y0053133D02*
X0164839Y0053133D01*
X0164847Y0052535D02*
X0078592Y0052535D01*
X0078246Y0051936D02*
X0164847Y0051936D01*
X0164847Y0051338D02*
X0077901Y0051338D01*
X0077565Y0050756D02*
X0077565Y0050756D01*
X0077535Y0050739D02*
X0164847Y0050739D01*
X0164847Y0013631D02*
X0074697Y0013631D01*
X0074697Y0013033D02*
X0164847Y0013033D01*
X0164847Y0012434D02*
X0074697Y0012434D01*
X0074697Y0011836D02*
X0164847Y0011836D01*
X0164847Y0011237D02*
X0076017Y0011237D01*
X0077054Y0010639D02*
X0164847Y0010639D01*
X0164847Y0010040D02*
X0077740Y0010040D01*
X0077565Y0010344D02*
X0077565Y0010344D01*
X0077565Y0010344D01*
X0078086Y0009442D02*
X0164847Y0009442D01*
X0164847Y0008843D02*
X0078431Y0008843D01*
X0078599Y0008245D02*
X0164847Y0008245D01*
X0164807Y0007646D02*
X0078599Y0007646D01*
X0078599Y0007048D02*
X0164657Y0007048D01*
X0164409Y0006449D02*
X0078579Y0006449D01*
X0078233Y0005851D02*
X0164060Y0005851D01*
X0163462Y0005252D02*
X0077888Y0005252D01*
X0077496Y0004654D02*
X0162352Y0004654D01*
X0072947Y0011836D02*
X0062547Y0011836D01*
X0062547Y0012434D02*
X0072947Y0012434D01*
X0072947Y0013033D02*
X0062547Y0013033D01*
X0062547Y0013631D02*
X0072947Y0013631D01*
X0072947Y0014230D02*
X0062547Y0014230D01*
X0062547Y0014828D02*
X0072947Y0014828D01*
X0072947Y0015427D02*
X0062547Y0015427D01*
X0062547Y0016025D02*
X0072947Y0016025D01*
X0072947Y0016624D02*
X0062547Y0016624D01*
X0062547Y0017222D02*
X0072947Y0017222D01*
X0072947Y0017821D02*
X0062547Y0017821D01*
X0062547Y0018420D02*
X0070041Y0018420D01*
X0068970Y0019018D02*
X0062547Y0019018D01*
X0062547Y0019617D02*
X0068371Y0019617D01*
X0068058Y0020215D02*
X0062547Y0020215D01*
X0062547Y0020814D02*
X0067810Y0020814D01*
X0067731Y0021412D02*
X0062547Y0021412D01*
X0062547Y0022011D02*
X0067731Y0022011D01*
X0067826Y0022609D02*
X0062547Y0022609D01*
X0062547Y0023208D02*
X0068074Y0023208D01*
X0068410Y0023806D02*
X0062547Y0023806D01*
X0062547Y0024405D02*
X0069009Y0024405D01*
X0070136Y0025003D02*
X0062547Y0025003D01*
X0062547Y0025602D02*
X0072947Y0025602D01*
X0072947Y0026200D02*
X0062547Y0026200D01*
X0062547Y0026799D02*
X0072947Y0026799D01*
X0072947Y0027397D02*
X0062547Y0027397D01*
X0062547Y0027996D02*
X0072947Y0027996D01*
X0072947Y0028594D02*
X0062547Y0028594D01*
X0062547Y0029193D02*
X0072947Y0029193D01*
X0072947Y0029791D02*
X0062547Y0029791D01*
X0062547Y0030390D02*
X0072947Y0030390D01*
X0072947Y0030988D02*
X0062547Y0030988D01*
X0062547Y0031587D02*
X0072947Y0031587D01*
X0072947Y0032185D02*
X0062547Y0032185D01*
X0062547Y0032784D02*
X0072947Y0032784D01*
X0072947Y0033382D02*
X0062547Y0033382D01*
X0062547Y0033981D02*
X0072947Y0033981D01*
X0072947Y0034579D02*
X0062547Y0034579D01*
X0062547Y0035178D02*
X0072947Y0035178D01*
X0072947Y0035776D02*
X0062547Y0035776D01*
X0062547Y0036375D02*
X0069465Y0036375D01*
X0068731Y0036973D02*
X0062547Y0036973D01*
X0062547Y0037572D02*
X0068207Y0037572D01*
X0067959Y0038170D02*
X0062547Y0038170D01*
X0062547Y0038769D02*
X0067731Y0038769D01*
X0067731Y0039367D02*
X0062547Y0039367D01*
X0062547Y0039966D02*
X0067731Y0039966D01*
X0067925Y0040564D02*
X0062547Y0040564D01*
X0062547Y0041163D02*
X0068173Y0041163D01*
X0068649Y0041761D02*
X0062547Y0041761D01*
X0062547Y0042360D02*
X0069268Y0042360D01*
X0072947Y0042958D02*
X0062547Y0042958D01*
X0062547Y0043557D02*
X0072947Y0043557D01*
X0072947Y0044155D02*
X0062547Y0044155D01*
X0062547Y0044754D02*
X0072947Y0044754D01*
X0072947Y0045353D02*
X0062547Y0045353D01*
X0062547Y0045951D02*
X0072947Y0045951D01*
X0072947Y0046550D02*
X0062547Y0046550D01*
X0062547Y0047148D02*
X0072947Y0047148D01*
X0072947Y0047747D02*
X0062547Y0047747D01*
X0062547Y0048345D02*
X0072947Y0048345D01*
X0072947Y0048944D02*
X0062547Y0048944D01*
X0062547Y0049542D02*
X0072947Y0049542D01*
X0072929Y0036375D02*
X0072947Y0036375D01*
X0072947Y0025003D02*
X0072258Y0025003D01*
X0072352Y0018420D02*
X0072947Y0018420D01*
X0066377Y0011237D02*
X0062547Y0011237D01*
X0062547Y0010639D02*
X0065340Y0010639D01*
X0064829Y0010344D02*
X0064829Y0010344D01*
X0064653Y0010040D02*
X0062547Y0010040D01*
X0062547Y0009442D02*
X0064308Y0009442D01*
X0063962Y0008843D02*
X0062547Y0008843D01*
X0062547Y0008245D02*
X0063794Y0008245D01*
X0063794Y0007646D02*
X0062547Y0007646D01*
X0062547Y0007048D02*
X0063794Y0007048D01*
X0063815Y0006449D02*
X0062611Y0006449D01*
X0062866Y0005851D02*
X0064160Y0005851D01*
X0064506Y0005252D02*
X0063237Y0005252D01*
X0064143Y0004654D02*
X0064897Y0004654D01*
D15*
X0087072Y0011800D03*
X0108697Y0017050D03*
X0113072Y0016800D03*
X0137822Y0024675D03*
X0133697Y0038050D03*
X0121947Y0044675D03*
X0118197Y0051550D03*
X0092072Y0040300D03*
X0106197Y0030550D03*
X0152447Y0049925D03*
X0161197Y0046550D03*
X0153197Y0012550D03*
D16*
X0124697Y0034050D02*
X0118697Y0028050D01*
X0118697Y0027050D01*
X0108697Y0017050D01*
X0118697Y0028050D02*
X0118697Y0045550D01*
X0121197Y0048050D01*
X0124697Y0034050D02*
X0157197Y0034050D01*
X0161197Y0038050D01*
X0161197Y0046550D01*
D17*
X0121197Y0048050D03*
D18*
X0071197Y0048050D03*
X0071197Y0013050D03*
M02*
